<svg id="filled_outline" height="512" viewBox="0 0 512 512" width="512" xmlns="http://www.w3.org/2000/svg" data-name="filled outline"><path d="m488 272v200a15.97833 15.97833 0 0 1 -16 16h-432a15.99564 15.99564 0 0 1 -16-16v-200z" fill="#51a37e"/><path d="m488 400h-88l83.32007 83.32007a15.988 15.988 0 0 1 -11.32007 4.67993h-47.33008l-80.66992-88h-56v88h-48v-88h-104v88h-48v-88h-64v-128h40v88h88l88-88h56l-88 88h168v-88h56v88h56z" fill="#90d4b1"/><path d="m24 272v-32a16 16 0 0 1 16-16h432a16 16 0 0 1 16 16v32z" fill="#308c72"/><path d="m136 112h248v200h-248z" fill="#f7c04a"/><path d="m280 208h72v72h-72z" fill="#fcedc0"/><path d="m256 24a64 64 0 0 0 -64 64c0 35.34619 64 112 64 112s64-76.65381 64-112a64 64 0 0 0 -64-64zm0 88a24 24 0 1 1 24-24 23.99994 23.99994 0 0 1 -24 24z" fill="#ed6445"/><path d="m472 216h-64v16h64a8.00917 8.00917 0 0 1 8 8v24h-72v16h16v80a8.00039 8.00039 0 0 0 8 8h48v24h-80a8.00066 8.00066 0 0 0 -5.65723 13.65723l74.34278 74.34277h-41.14576l-77.61987-85.38184a8.00415 8.00415 0 0 0 -5.91992-2.61816h-56a8.00039 8.00039 0 0 0 -8 8v80h-32v-80a8.00039 8.00039 0 0 0 -8-8h-104a8.00039 8.00039 0 0 0 -8 8v80h-32v-80a8.00039 8.00039 0 0 0 -8-8h-56v-112h24v80a8.00039 8.00039 0 0 0 8 8h88a8.00235 8.00235 0 0 0 5.65723-2.34277l24-24-11.31446-11.31446-21.65625 21.65723h-76.68652v-72h40v-16h-80v-24a8.00917 8.00917 0 0 1 8-8h72v-16h-72a24.0275 24.0275 0 0 0 -24 24v232a24.0275 24.0275 0 0 0 24 24h432a24.0275 24.0275 0 0 0 24-24v-232a24.0275 24.0275 0 0 0 -24-24zm-32 136v-72h40v72zm40 56v60.68555l-60.68652-60.68555zm-184 0h44.46094l65.45385 72h-109.91479zm-152 0h88v72h-88zm-112 64v-64h48v72h-40a8.00917 8.00917 0 0 1 -8-8z"/><circle cx="48" cy="248" r="8"/><circle cx="72" cy="248" r="8"/><circle cx="96" cy="248" r="8"/><path d="m392 312v-200a8.00039 8.00039 0 0 0 -8-8h-48v16h40v32h-64v16h64v136h-232v-136h56v-16h-56v-32h32v-16h-40a8.00039 8.00039 0 0 0 -8 8v200a8.00039 8.00039 0 0 0 8 8h248a8.00039 8.00039 0 0 0 8-8z"/><path d="m256 16a72.08124 72.08124 0 0 0 -72 72c0 16.29 11.23047 41.10156 33.37988 73.74707 16.03907 23.63965 31.81543 42.585 32.4795 43.37988a7.99875 7.99875 0 0 0 12.28124 0c.66407-.79492 16.44043-19.74023 32.4795-43.37988 22.14941-32.64551 33.37988-57.45707 33.37988-73.74707a72.08124 72.08124 0 0 0 -72-72zm0 171.31348c-19.91016-25.07422-56-75.45801-56-99.31348a56 56 0 0 1 112 0c0 23.85547-36.08984 74.23926-56 99.31348z"/><path d="m256 56a32 32 0 1 0 32 32 32.03667 32.03667 0 0 0 -32-32zm0 48a16 16 0 1 1 16-16 16.01833 16.01833 0 0 1 -16 16z"/><path d="m272 208v72a8.00039 8.00039 0 0 0 8 8h72a8.00039 8.00039 0 0 0 8-8v-72a8.00039 8.00039 0 0 0 -8-8h-72a8.00039 8.00039 0 0 0 -8 8zm16 8h56v56h-56z"/><path d="m296 248h40v16h-40z"/><path d="m312 224h24v16h-24z"/><path d="m226.34277 330.34277-24 24a8.00066 8.00066 0 0 0 5.65723 13.65723h168a8.00039 8.00039 0 0 0 8-8v-24h-16v16h-140.68652l10.34375-10.34277z"/></svg>